<svg width="14" height="8" viewBox="0 0 14 8" fill="none" xmlns="http://www.w3.org/2000/svg">
<path d="M12.8835 0.222112C12.7447 0.083292 12.5583 0.00594943 12.3599 0.00594943C12.1616 0.00594943 11.9752 0.083292 11.8364 0.222112L6.77541 5.28309L1.70848 0.216163C1.56966 0.0773426 1.38324 0 1.18493 0C0.986614 0 0.800198 0.0773426 0.661378 0.216163L0.217154 0.660387C-0.0723847 0.949926 -0.0723847 1.41993 0.217154 1.70749L6.24988 7.76202C6.3887 7.90084 6.57511 8 6.77541 8H6.77739C6.97571 8 7.16212 7.90084 7.30094 7.76202L13.3277 1.72335C13.4665 1.58453 13.5439 1.39217 13.5439 1.19385C13.5439 0.995538 13.4665 0.807139 13.3277 0.666336L12.8835 0.222112Z" fill="#FF715B"/>
</svg>
