<svg width="9" height="15" viewBox="0 0 9 15" fill="none" xmlns="http://www.w3.org/2000/svg">
<path d="M6.91875 0.24375C7.06875 0.09375 7.275 0 7.5 0C7.725 0 7.9125 0.09375 8.08125 0.24375L8.56875 0.73125C8.8875 1.05 8.8875 1.575 8.56875 1.89375L2.9625 7.5L8.56875 13.1062C8.71875 13.2562 8.8125 13.4625 8.8125 13.6875C8.8125 13.9125 8.71875 14.1188 8.56875 14.2688L8.08125 14.7562C7.93125 14.9062 7.725 15 7.5 15C7.275 15 7.06875 14.9062 6.91875 14.7562L0.243749 8.08125C0.093749 7.93125 0 7.725 0 7.5C0 7.275 0.093749 7.06875 0.243749 6.91875L6.91875 0.24375Z" fill="white"/>
</svg>
